<mxfile host="app.diagrams.net" modified="2022-05-18T01:06:49.120Z" agent="5.0 (Windows NT 10.0; Win64; x64) AppleWebKit/537.36 (KHTML, like Gecko) Chrome/96.0.4664.110 Safari/537.36" etag="ODfaD6cPk-xUUNRVAQcN" version="18.0.2" type="github">
  <diagram id="CFVVoWSrZk2KTcpsz0eJ" name="第 1 页">
    <mxGraphModel dx="1808" dy="552" grid="1" gridSize="10" guides="1" tooltips="1" connect="1" arrows="1" fold="1" page="1" pageScale="1" pageWidth="827" pageHeight="1169" math="0" shadow="0">
      <root>
        <mxCell id="0" />
        <mxCell id="1" parent="0" />
        <mxCell id="ClQNVbBQdnwnMK7u6O7Z-2" value="" style="edgeStyle=entityRelationEdgeStyle;startArrow=none;endArrow=none;segment=10;curved=1;rounded=0;" edge="1" parent="1" source="ClQNVbBQdnwnMK7u6O7Z-6" target="ClQNVbBQdnwnMK7u6O7Z-7">
          <mxGeometry relative="1" as="geometry" />
        </mxCell>
        <mxCell id="ClQNVbBQdnwnMK7u6O7Z-6" value="Go并发" style="ellipse;whiteSpace=wrap;html=1;align=center;treeFolding=1;treeMoving=1;newEdgeStyle={&quot;edgeStyle&quot;:&quot;entityRelationEdgeStyle&quot;,&quot;startArrow&quot;:&quot;none&quot;,&quot;endArrow&quot;:&quot;none&quot;,&quot;segment&quot;:10,&quot;curved&quot;:1};" vertex="1" parent="1">
          <mxGeometry x="-135" y="199.5" width="100" height="40" as="geometry" />
        </mxCell>
        <mxCell id="ClQNVbBQdnwnMK7u6O7Z-7" value="WaitGroup" style="whiteSpace=wrap;html=1;rounded=1;arcSize=50;align=center;verticalAlign=middle;strokeWidth=1;autosize=1;spacing=4;treeFolding=1;treeMoving=1;newEdgeStyle={&quot;edgeStyle&quot;:&quot;entityRelationEdgeStyle&quot;,&quot;startArrow&quot;:&quot;none&quot;,&quot;endArrow&quot;:&quot;none&quot;,&quot;segment&quot;:10,&quot;curved&quot;:1};" vertex="1" parent="1">
          <mxGeometry x="-310" y="199.5" width="100" height="30" as="geometry" />
        </mxCell>
        <mxCell id="ClQNVbBQdnwnMK7u6O7Z-12" value="" style="edgeStyle=entityRelationEdgeStyle;startArrow=none;endArrow=none;segment=10;curved=1;rounded=0;" edge="1" target="ClQNVbBQdnwnMK7u6O7Z-13" source="ClQNVbBQdnwnMK7u6O7Z-6" parent="1">
          <mxGeometry relative="1" as="geometry">
            <mxPoint x="-535" y="279.4999999999999" as="sourcePoint" />
          </mxGeometry>
        </mxCell>
        <mxCell id="ClQNVbBQdnwnMK7u6O7Z-13" value="Mutex" style="whiteSpace=wrap;html=1;rounded=1;arcSize=50;align=center;verticalAlign=middle;strokeWidth=1;autosize=1;spacing=4;treeFolding=1;treeMoving=1;newEdgeStyle={&quot;edgeStyle&quot;:&quot;entityRelationEdgeStyle&quot;,&quot;startArrow&quot;:&quot;none&quot;,&quot;endArrow&quot;:&quot;none&quot;,&quot;segment&quot;:10,&quot;curved&quot;:1};direction=west;" vertex="1" parent="1">
          <mxGeometry x="-280" y="119" width="70" height="30" as="geometry" />
        </mxCell>
        <mxCell id="ClQNVbBQdnwnMK7u6O7Z-14" value="" style="edgeStyle=entityRelationEdgeStyle;startArrow=none;endArrow=none;segment=10;curved=1;rounded=0;" edge="1" target="ClQNVbBQdnwnMK7u6O7Z-15" source="ClQNVbBQdnwnMK7u6O7Z-6" parent="1">
          <mxGeometry relative="1" as="geometry">
            <mxPoint x="-535" y="279.5" as="sourcePoint" />
          </mxGeometry>
        </mxCell>
        <mxCell id="ClQNVbBQdnwnMK7u6O7Z-15" value="Cond" style="whiteSpace=wrap;html=1;rounded=1;arcSize=50;align=center;verticalAlign=middle;strokeWidth=1;autosize=1;spacing=4;treeFolding=1;treeMoving=1;newEdgeStyle={&quot;edgeStyle&quot;:&quot;entityRelationEdgeStyle&quot;,&quot;startArrow&quot;:&quot;none&quot;,&quot;endArrow&quot;:&quot;none&quot;,&quot;segment&quot;:10,&quot;curved&quot;:1};" vertex="1" parent="1">
          <mxGeometry x="-280" y="239.5" width="70" height="30" as="geometry" />
        </mxCell>
        <mxCell id="ClQNVbBQdnwnMK7u6O7Z-17" value="" style="edgeStyle=entityRelationEdgeStyle;startArrow=none;endArrow=none;segment=10;curved=1;rounded=0;" edge="1" target="ClQNVbBQdnwnMK7u6O7Z-18" source="ClQNVbBQdnwnMK7u6O7Z-6" parent="1">
          <mxGeometry relative="1" as="geometry">
            <mxPoint x="-535" y="279.5" as="sourcePoint" />
          </mxGeometry>
        </mxCell>
        <mxCell id="ClQNVbBQdnwnMK7u6O7Z-18" value="Once" style="whiteSpace=wrap;html=1;rounded=1;arcSize=50;align=center;verticalAlign=middle;strokeWidth=1;autosize=1;spacing=4;treeFolding=1;treeMoving=1;newEdgeStyle={&quot;edgeStyle&quot;:&quot;entityRelationEdgeStyle&quot;,&quot;startArrow&quot;:&quot;none&quot;,&quot;endArrow&quot;:&quot;none&quot;,&quot;segment&quot;:10,&quot;curved&quot;:1};" vertex="1" parent="1">
          <mxGeometry x="-280" y="280" width="70" height="30" as="geometry" />
        </mxCell>
        <mxCell id="ClQNVbBQdnwnMK7u6O7Z-19" value="" style="edgeStyle=entityRelationEdgeStyle;startArrow=none;endArrow=none;segment=10;curved=1;rounded=0;" edge="1" target="ClQNVbBQdnwnMK7u6O7Z-20" source="ClQNVbBQdnwnMK7u6O7Z-6" parent="1">
          <mxGeometry relative="1" as="geometry">
            <mxPoint x="-535" y="279.5" as="sourcePoint" />
          </mxGeometry>
        </mxCell>
        <mxCell id="ClQNVbBQdnwnMK7u6O7Z-20" value="Pool" style="whiteSpace=wrap;html=1;rounded=1;arcSize=50;align=center;verticalAlign=middle;strokeWidth=1;autosize=1;spacing=4;treeFolding=1;treeMoving=1;newEdgeStyle={&quot;edgeStyle&quot;:&quot;entityRelationEdgeStyle&quot;,&quot;startArrow&quot;:&quot;none&quot;,&quot;endArrow&quot;:&quot;none&quot;,&quot;segment&quot;:10,&quot;curved&quot;:1};" vertex="1" parent="1">
          <mxGeometry x="25" y="169.5" width="60" height="30" as="geometry" />
        </mxCell>
        <mxCell id="ClQNVbBQdnwnMK7u6O7Z-21" value="" style="edgeStyle=entityRelationEdgeStyle;startArrow=none;endArrow=none;segment=10;curved=1;rounded=0;" edge="1" target="ClQNVbBQdnwnMK7u6O7Z-22" source="ClQNVbBQdnwnMK7u6O7Z-6" parent="1">
          <mxGeometry relative="1" as="geometry">
            <mxPoint x="-535" y="279.5" as="sourcePoint" />
          </mxGeometry>
        </mxCell>
        <mxCell id="ClQNVbBQdnwnMK7u6O7Z-22" value="Context" style="whiteSpace=wrap;html=1;rounded=1;arcSize=50;align=center;verticalAlign=middle;strokeWidth=1;autosize=1;spacing=4;treeFolding=1;treeMoving=1;newEdgeStyle={&quot;edgeStyle&quot;:&quot;entityRelationEdgeStyle&quot;,&quot;startArrow&quot;:&quot;none&quot;,&quot;endArrow&quot;:&quot;none&quot;,&quot;segment&quot;:10,&quot;curved&quot;:1};" vertex="1" parent="1">
          <mxGeometry x="25" y="209.5" width="79" height="29" as="geometry" />
        </mxCell>
        <mxCell id="ClQNVbBQdnwnMK7u6O7Z-23" value="" style="edgeStyle=entityRelationEdgeStyle;startArrow=none;endArrow=none;segment=10;curved=1;rounded=0;" edge="1" target="ClQNVbBQdnwnMK7u6O7Z-24" source="ClQNVbBQdnwnMK7u6O7Z-6" parent="1">
          <mxGeometry relative="1" as="geometry">
            <mxPoint x="-575" y="269.5" as="sourcePoint" />
          </mxGeometry>
        </mxCell>
        <mxCell id="ClQNVbBQdnwnMK7u6O7Z-24" value="RWMutext" style="whiteSpace=wrap;html=1;rounded=1;arcSize=50;align=center;verticalAlign=middle;strokeWidth=1;autosize=1;spacing=4;treeFolding=1;treeMoving=1;newEdgeStyle={&quot;edgeStyle&quot;:&quot;entityRelationEdgeStyle&quot;,&quot;startArrow&quot;:&quot;none&quot;,&quot;endArrow&quot;:&quot;none&quot;,&quot;segment&quot;:10,&quot;curved&quot;:1};" vertex="1" parent="1">
          <mxGeometry x="-310" y="160" width="100" height="30" as="geometry" />
        </mxCell>
      </root>
    </mxGraphModel>
  </diagram>
</mxfile>
